<?xml version="1.0" encoding="UTF-8"?>
<svg version="1.1" xmlns="http://www.w3.org/2000/svg" width="1024" height="1024">
<path d="M0 0 C1.31316175 -0.00205263 2.6263235 -0.00410527 3.97927803 -0.0062201 C7.62963785 -0.01177756 11.27997417 -0.01111602 14.93033686 -0.00944251 C18.89980485 -0.00871085 22.86926624 -0.0137357 26.83873141 -0.01801753 C34.71422259 -0.02559555 42.58970699 -0.02779049 50.46520144 -0.02834659 C59.89767989 -0.02926043 69.33015207 -0.03592861 78.76262783 -0.04269341 C101.56172226 -0.05875418 124.36081602 -0.06465689 147.15991508 -0.06944216 C157.94626801 -0.07177815 168.7326204 -0.07538081 179.5189729 -0.07913754 C216.4442123 -0.09197344 253.36945141 -0.10269233 290.29469299 -0.10614014 C292.61271716 -0.10636177 294.93074133 -0.10658355 297.24876551 -0.10680549 C299.5723818 -0.10702613 301.89599809 -0.10724661 304.21961439 -0.10746694 C308.88116924 -0.10790949 313.54272409 -0.1083566 318.20427895 -0.10880661 C319.36007377 -0.108916 320.51586859 -0.10902539 321.7066875 -0.1091381 C359.17849294 -0.11276826 396.65027903 -0.12868657 434.12207706 -0.15199697 C473.74228132 -0.17659877 513.36247452 -0.19031315 552.98268664 -0.19150805 C557.33295481 -0.19167951 561.68322297 -0.19189494 566.03349113 -0.19214249 C567.10464421 -0.19219826 568.17579729 -0.19225402 569.27940956 -0.19231148 C586.51013339 -0.19346166 603.74083735 -0.20448091 620.97155448 -0.21902954 C638.29500965 -0.2334034 655.61843937 -0.23662651 672.94189887 -0.22858956 C683.2296991 -0.22413743 693.51741714 -0.22797729 703.80520655 -0.24382807 C710.68421413 -0.25359523 717.56316428 -0.25238326 724.44217137 -0.24239184 C728.35712622 -0.23701232 732.27192349 -0.23624907 736.18686514 -0.24890056 C766.05047137 -0.33943913 766.05047137 -0.33943913 780.06707191 3.13142776 C780.91604022 3.33924842 781.76500853 3.54706907 782.63970315 3.76118731 C819.96675248 13.77834517 850.48230493 37.35763603 869.74675941 70.72517776 C877.9382037 85.36242265 883.18619502 100.61301855 886.06707191 117.13142776 C886.24055995 118.08389755 886.41404798 119.03636733 886.59279323 120.01769984 C887.38315379 125.66794556 887.20674503 131.37138827 887.19849968 137.06435585 C887.20157863 139.03409847 887.20157863 139.03409847 887.20471978 141.04363388 C887.21027724 144.6939937 887.2096157 148.34433002 887.20794219 151.99469271 C887.20721053 155.9641607 887.21223538 159.93362209 887.21651721 163.90308726 C887.22409523 171.77857844 887.22629017 179.65406284 887.22684627 187.52955729 C887.22776011 196.96203574 887.23442829 206.39450793 887.24119309 215.82698368 C887.25725386 238.62607811 887.26315657 261.42517187 887.26794184 284.22427093 C887.27027783 295.01062386 887.27388049 305.79697625 887.27763722 316.58332875 C887.29047312 353.50856815 887.30119201 390.43380726 887.30463982 427.35904884 C887.30486145 429.67707301 887.30508323 431.99509719 887.30530517 434.31312136 C887.30552581 436.63673765 887.30574629 438.96035394 887.30596662 441.28397024 C887.30640917 445.94552509 887.30685628 450.60707994 887.30730629 455.2686348 C887.30741568 456.42442962 887.30752507 457.58022444 887.30763778 458.77104335 C887.31126794 496.24284879 887.32718625 533.71463488 887.35049665 571.18643291 C887.37509845 610.80663717 887.38881283 650.42683037 887.39000773 690.04704249 C887.39017919 694.39731066 887.39039461 698.74757882 887.39064217 703.09784698 C887.39069793 704.16900006 887.3907537 705.24015314 887.39081116 706.34376541 C887.39196134 723.57448924 887.40298059 740.80519321 887.41752922 758.03591033 C887.43190308 775.3593655 887.43512618 792.68279522 887.42708924 810.00625472 C887.4226371 820.29405495 887.42647697 830.58177299 887.44232775 840.8695624 C887.45209491 847.74856998 887.45088294 854.62752013 887.44089152 861.50652722 C887.435512 865.42148207 887.43474875 869.33627934 887.44740024 873.25122099 C887.53793881 903.11482722 887.53793881 903.11482722 884.06707191 917.13142776 C883.85925126 917.98039607 883.65143061 918.82936438 883.43731236 919.704059 C873.42015451 957.03110833 849.84086365 987.54666078 816.47332191 1006.81111526 C801.83607703 1015.00255955 786.58548113 1020.25055087 770.06707191 1023.13142776 C769.11460213 1023.3049158 768.16213235 1023.47840383 767.18079984 1023.65714908 C761.53055412 1024.44750964 755.82711141 1024.27110088 750.13414383 1024.26285553 C748.82098208 1024.26490816 747.50782033 1024.2669608 746.1548658 1024.26907563 C742.50450598 1024.27463309 738.85416966 1024.27397155 735.20380697 1024.27229804 C731.23433898 1024.27156638 727.26487759 1024.27659123 723.29541242 1024.28087306 C715.41992124 1024.28845108 707.54443684 1024.29064602 699.66894239 1024.29120212 C690.23646394 1024.29211596 680.80399175 1024.29878414 671.371516 1024.30554894 C648.57242157 1024.32160971 625.77332781 1024.32751242 602.97422875 1024.33229769 C592.18787582 1024.33463368 581.40152343 1024.33823634 570.61517093 1024.34199307 C533.68993153 1024.35482897 496.76469242 1024.36554786 459.83945084 1024.36899567 C457.52142667 1024.3692173 455.20340249 1024.36943908 452.88537832 1024.36966102 C450.56176203 1024.36988166 448.23814574 1024.37010214 445.91452944 1024.37032247 C441.25297459 1024.37076502 436.59141974 1024.37121213 431.92986488 1024.37166214 C430.19617265 1024.37182623 430.19617265 1024.37182623 428.42745633 1024.37199363 C390.95565089 1024.37562379 353.4838648 1024.3915421 316.01206677 1024.4148525 C276.39186251 1024.4394543 236.77166931 1024.45316868 197.15145719 1024.45436358 C192.80118902 1024.45453504 188.45092086 1024.45475047 184.10065269 1024.45499802 C183.02949962 1024.45505379 181.95834654 1024.45510955 180.85473427 1024.45516701 C163.62401044 1024.45631719 146.39330647 1024.46733644 129.16258935 1024.48188507 C111.83913418 1024.49625893 94.51570446 1024.49948204 77.19224496 1024.49144509 C66.90444473 1024.48699295 56.61672669 1024.49083282 46.32893728 1024.5066836 C39.4499297 1024.51645076 32.57097955 1024.51523879 25.69197246 1024.50524737 C21.77701761 1024.49986785 17.86222034 1024.4991046 13.94727869 1024.51175609 C-15.91632754 1024.60229466 -15.91632754 1024.60229466 -29.93292809 1021.13142776 C-30.78189639 1020.92360711 -31.6308647 1020.71578646 -32.50555933 1020.50166821 C-67.47777375 1011.11645833 -98.75344273 989.02526246 -117.36652184 957.72029495 C-126.55654316 941.71088778 -132.76007882 925.32395198 -135.93292809 907.13142776 C-136.10641612 906.17895798 -136.27990415 905.2264882 -136.4586494 904.24515569 C-137.24900996 898.59490997 -137.0726012 892.89146726 -137.06435585 887.19849968 C-137.06640848 885.88533793 -137.06846112 884.57217618 -137.07057595 883.21922165 C-137.07613341 879.56886183 -137.07547187 875.91852551 -137.07379836 872.26816282 C-137.0730667 868.29869483 -137.07809155 864.32923344 -137.08237338 860.35976827 C-137.0899514 852.48427709 -137.09214634 844.60879269 -137.09270244 836.73329824 C-137.09361628 827.30081979 -137.10028446 817.8683476 -137.10704926 808.43587185 C-137.12311003 785.63677742 -137.12901274 762.83768366 -137.13379801 740.0385846 C-137.136134 729.25223167 -137.13973666 718.46587928 -137.14349339 707.67952678 C-137.15632929 670.75428738 -137.16704818 633.82904827 -137.17049599 596.90380669 C-137.17071762 594.58578252 -137.1709394 592.26775834 -137.17116134 589.94973417 C-137.17138198 587.62611788 -137.17160246 585.30250159 -137.17182279 582.97888529 C-137.17226534 578.31733044 -137.17271245 573.65577559 -137.17316246 568.99422073 C-137.17332655 567.2605285 -137.17332655 567.2605285 -137.17349395 565.49181218 C-137.17712411 528.02000674 -137.19304242 490.54822065 -137.21635282 453.07642262 C-137.24095462 413.45621836 -137.254669 373.83602516 -137.2558639 334.21581304 C-137.25603536 329.86554487 -137.25625079 325.51527671 -137.25649834 321.16500854 C-137.25655411 320.09385547 -137.25660987 319.02270239 -137.25666733 317.91909012 C-137.25781751 300.68836629 -137.26883676 283.45766232 -137.28338539 266.2269452 C-137.29775925 248.90349003 -137.30098236 231.58006031 -137.29294541 214.25660081 C-137.28849328 203.96880058 -137.29233314 193.68108254 -137.30818392 183.39329313 C-137.31795108 176.51428555 -137.31673911 169.6353354 -137.30674769 162.75632831 C-137.30136817 158.84137346 -137.30060492 154.92657619 -137.31325641 151.01163454 C-137.40379498 121.14802831 -137.40379498 121.14802831 -133.93292809 107.13142776 C-133.72510743 106.28245946 -133.51728678 105.43349115 -133.30316854 104.55879653 C-123.28601068 67.2317472 -99.70671982 36.71619475 -66.33917809 17.45174026 C-51.7019332 9.26029598 -36.4513373 4.01230465 -19.93292809 1.13142776 C-18.50422341 0.87119572 -18.50422341 0.87119572 -17.04665601 0.60570645 C-11.39641029 -0.18465411 -5.69296758 -0.00824535 0 0 Z " fill="#5F73F0" transform="translate(136.93292808532715,-0.13142776489257813)"/>
<path d="M0 0 C1.58378677 -0.00445668 1.58378677 -0.00445668 3.19956923 -0.0090034 C6.72017182 -0.01764038 10.24074021 -0.01919444 13.76135254 -0.02069092 C16.29351371 -0.02532289 18.82567419 -0.03034806 21.35783386 -0.03573608 C28.22859537 -0.04883166 35.09934571 -0.05533801 41.97011757 -0.05974674 C46.27251431 -0.06251928 50.57490884 -0.06675863 54.87730408 -0.07125092 C66.82212431 -0.08344178 78.76694279 -0.09373869 90.7117691 -0.09712601 C91.4752105 -0.09734557 92.23865189 -0.09756514 93.02522787 -0.09779136 C93.79036992 -0.09800964 94.55551196 -0.09822791 95.34384012 -0.09845281 C96.89398098 -0.09889625 98.44412184 -0.09934281 99.9942627 -0.09979248 C100.76316588 -0.10001391 101.53206906 -0.10023534 102.32427233 -0.10046348 C114.74520195 -0.10439995 127.16607248 -0.12181948 139.58697933 -0.145152 C152.3825177 -0.16899112 165.17802661 -0.18133367 177.97358751 -0.18249393 C185.14011384 -0.18340413 192.30656334 -0.18898827 199.47306824 -0.20731354 C206.22994031 -0.22453177 212.98664338 -0.22587446 219.74353981 -0.21717453 C222.20348819 -0.2164123 224.66344484 -0.22063718 227.12337303 -0.23063278 C247.50211373 -0.30848172 268.03770534 0.73501962 287.86486816 5.82794189 C288.88628906 6.0843042 289.90770996 6.3406665 290.96008301 6.60479736 C315.63047587 13.01551469 339.05744756 23.33571479 359.17736816 39.14044189 C360.05393066 39.79657471 360.93049316 40.45270752 361.83361816 41.12872314 C400.2601381 70.9324246 424.74085736 115.74847756 431.40344238 163.66534424 C437.35204852 215.03274795 423.33873426 264.82899058 391.63439941 305.42950439 C380.51955306 319.04303713 367.91477623 332.03097215 353.64611816 342.32794189 C352.83143066 342.92606689 352.01674316 343.52419189 351.17736816 344.14044189 C350.54830566 344.57356689 349.91924316 345.00669189 349.27111816 345.45294189 C347.87406233 347.26591388 347.87406233 347.26591388 348.22424316 350.43341064 C349.26526218 354.48229197 350.91289765 357.21016535 353.42736816 360.45294189 C354.34436515 361.68446684 355.26101474 362.91625051 356.17736816 364.14825439 C356.66592285 364.79568604 357.15447754 365.44311768 357.65783691 366.11016846 C359.75049037 368.90620093 361.78224044 371.74428831 363.8170166 374.58258057 C369.45911109 382.44952159 375.19258437 390.24800187 380.94592285 398.03375244 C385.4350602 404.11522784 389.86703853 410.23606666 394.28283691 416.37091064 C398.21128832 421.82128028 402.18442085 427.23718206 406.17736816 432.64044189 C411.25941894 439.51747749 416.28739614 446.43077273 421.28283691 453.37091064 C425.21128832 458.82128028 429.18442085 464.23718206 433.17736816 469.64044189 C438.25880739 476.51664994 443.2870584 483.4284947 448.28063965 490.36871338 C452.22604599 495.84422731 456.22503258 501.27820316 460.23986816 506.70294189 C464.78485487 512.85846632 469.29963824 519.03382085 473.73986816 525.26544189 C474.21625732 525.92745605 474.69264648 526.58947021 475.18347168 527.27154541 C481.38588539 536.03302009 486.52574183 544.05381394 485.17736816 555.14044189 C483.44357778 559.96490209 480.47075786 563.38040566 476.17736816 566.14044189 C471.59574187 567.9936799 467.44870056 568.4374289 462.56164551 568.43096924 C461.45272194 568.44104507 461.45272194 568.44104507 460.32139587 568.45132446 C457.88529646 568.4702607 455.44947407 568.47422869 453.01330566 568.47637939 C451.29859306 568.48281834 449.58388153 568.48954749 447.86917114 568.49655151 C444.26972926 568.50851917 440.67038322 568.51223367 437.07092285 568.51104736 C433.41674795 568.51088581 429.76307962 568.52460917 426.10900879 568.55206299 C392.59650565 568.80036108 361.87375185 567.34710222 335.17736816 544.14044189 C334.36783691 543.47528564 333.55830566 542.81012939 332.72424316 542.12481689 C325.45268672 535.95085388 319.83267684 528.75049266 314.17736816 521.14044189 C313.64095703 520.42033936 313.1045459 519.70023682 312.55187988 518.95831299 C309.00625437 514.18815149 305.48921855 509.39745926 301.98010254 504.60040283 C300.20246829 502.17469282 298.41794079 499.75424015 296.63049316 497.33575439 C290.39331361 488.89640327 284.20237212 480.42673673 278.07165527 471.909729 C274.14337936 466.45937252 270.17024781 461.04361015 266.17736816 455.64044189 C261.09531739 448.7634063 256.06734019 441.85011106 251.07189941 434.90997314 C247.143448 429.45960351 243.17031548 424.04370173 239.17736816 418.64044189 C234.63985805 412.5002792 230.1377024 406.33689528 225.67736816 400.14044189 C218.91753067 390.75263417 212.05319472 381.44347694 205.17736816 372.14044189 C197.76049271 362.10536441 190.36385686 352.05863549 183.08483887 341.9229126 C180.25689219 337.99221748 177.40040987 334.08663535 174.49768066 330.21075439 C162.86993581 314.67094246 153.63469482 302.29408469 155.17736816 282.14044189 C156.97829869 273.53472956 162.30631161 266.50261898 169.49768066 261.53887939 C179.6145274 255.97624019 191.04616219 255.85300501 202.32580566 255.83184814 C204.82059971 255.80669238 207.31539132 255.7812943 209.81018066 255.75567627 C213.68257025 255.72699372 217.55491778 255.70292953 221.42736816 255.68414307 C241.04298729 255.87744396 241.04298729 255.87744396 260.17736816 252.14044189 C260.89634277 251.91638672 261.61531738 251.69233154 262.3560791 251.46148682 C279.82512949 245.41503577 292.38788476 233.46860984 300.65783691 217.23419189 C307.75312129 202.086488 309.21893631 183.80070566 304.05236816 167.70294189 C303.15632812 165.48919591 302.20193673 163.29771292 301.17736816 161.14044189 C300.71975098 160.15302002 300.26213379 159.16559814 299.79064941 158.14825439 C291.32352332 141.39958304 277.63230661 130.54209163 260.1835022 124.02166748 C246.32998107 119.89637857 232.0010289 120.5528336 217.68451071 120.60313988 C213.8503418 120.61338487 210.01620808 120.60384465 206.18203735 120.59759521 C199.7588603 120.59036061 193.33586854 120.59980466 186.91271973 120.61895752 C179.49833368 120.64081138 172.08438626 120.63359685 164.67001045 120.6116519 C158.27555372 120.59348841 151.88122873 120.59094138 145.48675454 120.60140657 C141.67940896 120.60762445 137.87226971 120.60852256 134.06493759 120.59526062 C130.49412276 120.58368536 126.92387458 120.59175735 123.3531208 120.61483765 C121.42451372 120.62262108 119.49585852 120.61078975 117.567276 120.59832764 C111.16133189 120.66090233 106.993584 120.72386182 102.17736816 125.14044189 C98.15476349 129.59792275 97.05281846 132.65917923 97.04987621 138.59462738 C97.04686856 139.73492039 97.04386092 140.8752134 97.04076213 142.05006075 C97.04338768 143.93769553 97.04338768 143.93769553 97.04606628 145.86346436 C97.0443646 147.2095723 97.04221512 148.55567974 97.03965503 149.90178633 C97.03505215 152.83415081 97.03363831 155.76649418 97.03462029 158.69886208 C97.03621113 163.47042803 97.0310147 168.24197298 97.0249939 173.01353455 C97.01687353 179.9444732 97.01193428 186.87540817 97.00870323 193.80635071 C97.00320462 204.77543687 96.98630267 215.74449196 96.96736145 226.71356201 C96.96100408 230.46802515 96.95469564 234.22248838 96.94838428 237.9769516 C96.94680052 238.91538832 96.94521676 239.85382505 96.943585 240.82069924 C96.92563926 251.5094719 96.90942003 262.19824676 96.89440918 272.88702393 C96.89303331 273.86425578 96.89165744 274.84148764 96.89023987 275.84833258 C96.86835711 291.64919508 96.85756571 307.45004957 96.85003843 323.25092453 C96.84194705 339.48829519 96.81858724 355.72559759 96.78208476 371.96292925 C96.76013541 381.96748863 96.75037187 391.97190733 96.7565851 401.97648954 C96.75977723 408.84848402 96.74831473 415.7203591 96.72569069 422.59231663 C96.71311217 426.54809726 96.70674317 430.50361166 96.71810722 434.45940208 C96.80137773 466.41992374 92.3403219 497.40040051 70.17736816 522.14044189 C69.49158691 522.94481689 68.80580566 523.74919189 68.09924316 524.57794189 C50.79080116 544.50132838 29.36052806 558.26671975 4.17736816 566.14044189 C3.0520166 566.5097583 3.0520166 566.5097583 1.90393066 566.88653564 C-3.12974144 568.28477789 -8.25337462 568.40164231 -13.44763184 568.51544189 C-14.16475342 568.54162598 -14.881875 568.56781006 -15.62072754 568.5947876 C-21.61747598 568.61346906 -25.82286911 566.95693295 -30.28918457 562.76348877 C-35.67523993 556.76877887 -36.11732228 550.71873202 -36.07990074 543.06920815 C-36.08340682 542.16140193 -36.08691289 541.25359571 -36.09052521 540.31828022 C-36.09985388 537.26615237 -36.09491207 534.21421472 -36.09005737 531.16207886 C-36.09379288 528.95583229 -36.098394 526.74958704 -36.10378802 524.5433439 C-36.11604554 518.4724878 -36.11575431 512.4016867 -36.11339927 506.33082104 C-36.11303363 500.45856986 -36.12200954 494.58633774 -36.13062504 488.71409397 C-36.1499718 475.21857938 -36.1555935 461.72307997 -36.15673916 448.22755314 C-36.15765802 437.80680378 -36.16177351 427.38606038 -36.16814041 416.96531296 C-36.16993548 413.96642284 -36.1717151 410.96753272 -36.17349017 407.96864259 C-36.17415331 406.85036787 -36.17415331 406.85036787 -36.17482985 405.70950174 C-36.18713894 384.73838068 -36.1950309 363.76726169 -36.1941433 342.79613686 C-36.19411214 342.00540446 -36.19408098 341.21467206 -36.19404888 340.39997808 C-36.19388266 336.39215288 -36.19368458 332.38432767 -36.19347946 328.37650247 C-36.19343957 327.58052337 -36.19339968 326.78454426 -36.19335858 325.96444458 C-36.19327771 324.35478117 -36.19319411 322.74511776 -36.1931078 321.13545435 C-36.19188207 296.08728897 -36.20689915 271.03917772 -36.23425293 245.99102783 C-36.26496654 217.85459893 -36.28218589 189.71820559 -36.28032649 161.58175886 C-36.28017722 158.58224003 -36.28007981 155.5827212 -36.28001785 152.58320236 C-36.27999454 151.84463524 -36.27997124 151.10606812 -36.27994722 150.34512018 C-36.27988565 138.45444383 -36.29266279 126.56381444 -36.30988238 114.67315206 C-36.3268267 102.72559204 -36.32882212 90.77810081 -36.31566374 78.83053543 C-36.30911782 72.35668867 -36.30907557 65.88301231 -36.32637024 59.40918159 C-36.34203387 53.48507712 -36.33930598 47.5612791 -36.32180198 41.6371824 C-36.31871729 39.4918756 -36.32241934 37.3465463 -36.33352213 35.20126601 C-36.34760206 32.28825725 -36.3370889 29.37632957 -36.32040977 26.46335793 C-36.33034613 25.62776431 -36.34028249 24.79217069 -36.35051996 23.93125606 C-36.27056235 17.33950628 -34.41275313 12.14196948 -30.07653809 7.11700439 C-20.881935 -0.23018421 -11.407181 -0.01016603 0 0 Z " fill="#FEFCFE" transform="translate(261.8226318359375,225.85955810546875)"/>
<path d="M0 0 C2.75569447 2.18159145 4.43588747 3.87177494 6 7 C6.09910738 8.76591963 6.1355553 10.5355119 6.1418457 12.30419922 C6.15239738 13.96634964 6.15239738 13.96634964 6.16316223 15.66207886 C6.16732651 16.86413971 6.17149078 18.06620056 6.17578125 19.3046875 C6.19897603 21.83203961 6.22309322 24.35938339 6.24804688 26.88671875 C6.28320854 30.88531356 6.314212 34.88359811 6.32592773 38.88232422 C6.34136374 42.73182585 6.38154605 46.58042341 6.42578125 50.4296875 C6.42387283 51.62769989 6.42196442 52.82571228 6.41999817 54.06002808 C6.43648911 55.17443268 6.45298004 56.28883728 6.4699707 57.43701172 C6.47583694 58.41693085 6.48170319 59.39684998 6.48774719 60.40646362 C7.14150811 63.71645566 8.42640532 64.89029551 11 67 C14.33836162 68.66918081 18.09653769 68.17934795 21.76953125 68.2109375 C23.5631601 68.23901031 25.35677977 68.2676748 27.15039062 68.296875 C29.98119815 68.33811108 32.81183505 68.37499381 35.64282227 68.40136719 C38.37292006 68.42901375 41.10223574 68.47488981 43.83203125 68.5234375 C45.0963372 68.5283168 45.0963372 68.5283168 46.38618469 68.53329468 C52.12035117 68.65293603 55.51737295 69.68858861 59.8125 73.6875 C61.58523784 77.13967369 61.61728653 80.24909719 61 84 C59.47105177 87.70920521 57.44605314 91.07026052 55.375 94.5 C54.79105469 95.49902344 54.20710937 96.49804688 53.60546875 97.52734375 C52.37165667 99.63455798 51.13028285 101.73736076 49.88183594 103.8359375 C47.47555199 107.88179115 45.10679305 111.94894563 42.73803711 116.0168457 C41.5744151 118.01407809 40.40854196 120.01000056 39.24047852 122.00463867 C35.2013567 128.90571557 31.23655526 135.84543109 27.3125 142.8125 C26.24609502 144.70052155 25.17968879 146.58854239 24.11328125 148.4765625 C22.55187172 151.24254367 20.99422134 154.01035835 19.44677734 156.78417969 C17.97356358 159.42382491 16.48795306 162.056143 15 164.6875 C14.56727783 165.47165283 14.13455566 166.25580566 13.6887207 167.0637207 C11.29956018 171.26071821 9.16000592 174.32963316 5 177 C1.86779303 177.68091456 0.05361552 177.54021398 -2.80841064 176.07278442 C-5.93844711 173.82651868 -7.72965507 172.14702001 -8.63171387 168.31976318 C-8.85761066 164.96319245 -8.86425435 161.66823595 -8.796875 158.3046875 C-8.80205139 157.07968536 -8.80722778 155.85468323 -8.81256104 154.59255981 C-8.82444952 150.68588426 -8.78991584 146.78146188 -8.75 142.875 C-8.73126304 138.9618574 -8.72248816 135.04919785 -8.73028564 131.13601685 C-8.73296999 128.70309425 -8.71914521 126.2700861 -8.68719482 123.83737183 C-8.68439514 122.73587799 -8.68159546 121.63438416 -8.67871094 120.49951172 C-8.66870056 119.53165741 -8.65869019 118.5638031 -8.64837646 117.56661987 C-9.06510123 114.52480395 -9.87555391 113.18988485 -12 111 C-15.87866084 109.70711305 -19.57031025 109.84478133 -23.61328125 109.82421875 C-25.35352769 109.80101795 -27.0937621 109.7769005 -28.83398438 109.75195312 C-31.57259138 109.71687109 -34.31075637 109.68750855 -37.04956055 109.67407227 C-39.69634305 109.65855212 -42.34184039 109.61831748 -44.98828125 109.57421875 C-45.80097977 109.57612717 -46.61367828 109.57803558 -47.45100403 109.58000183 C-54.00680144 109.43972025 -57.58721693 107.28579449 -62.375 102.75 C-64.5810658 99.01665787 -64.84466701 96.16902343 -64 92 C-61.92006534 87.35491447 -59.31284756 83.0391035 -56.6875 78.6875 C-55.94362861 77.42547018 -55.2014562 76.16243749 -54.4609375 74.8984375 C-52.98966753 72.39234335 -51.509814 69.89170458 -50.02099609 67.39599609 C-47.47571945 63.1190212 -44.98456519 58.8123915 -42.5 54.5 C-41.63946503 53.01684462 -40.77878302 51.53377454 -39.91796875 50.05078125 C-34.87022068 41.33161741 -29.88872264 32.57412262 -24.89453125 23.82421875 C-24.25854004 22.71481934 -23.62254883 21.60541992 -22.96728516 20.46240234 C-21.5842147 18.02821208 -20.21981132 15.58897865 -18.87255859 13.13525391 C-18.51949142 12.49932816 -18.16642426 11.8634024 -17.80265808 11.20820618 C-16.81797405 9.43342504 -15.84171082 7.65397945 -14.8659668 5.87426758 C-11.02845438 -0.03689736 -6.79030072 -1.33143151 0 0 Z " fill="#FDBD41" transform="translate(732,172)"/>
<path d="M0 0 C3.21572992 0.9381784 4.21736294 2.84130183 6.03515625 5.59375 C7.1041618 8.01063212 8.06824152 10.36980864 8.97265625 12.84375 C13.39980615 24.37900509 18.4134615 35.20163144 30.23706055 40.59887695 C33.54968013 41.97225419 36.88205984 43.29010262 40.22265625 44.59375 C48.22324785 47.82427279 48.22324785 47.82427279 51.03515625 51.59375 C51.53515625 54.59375 51.53515625 54.59375 51.03515625 57.59375 C47.650622 62.13085538 42.7544849 63.60571931 37.66015625 65.59375 C26.96391582 69.80642315 17.97881653 74.86251098 12.5546875 85.49609375 C11.29651883 88.5040847 10.13879807 91.5258648 9.03515625 94.59375 C8.35793731 96.45169639 7.67114625 98.30619541 6.97265625 100.15625 C6.69292969 100.94128906 6.41320312 101.72632813 6.125 102.53515625 C4.79212563 105.05280783 3.46932072 106.13869079 1.03515625 107.59375 C-2.46484375 108.09375 -2.46484375 108.09375 -5.96484375 107.59375 C-9.66407469 103.88034576 -11.20936 99.71402613 -12.83984375 94.84375 C-16.66343141 84.12797843 -21.60731557 75.13068222 -32.20703125 70.03515625 C-36.68239114 68.10545806 -41.19650317 66.29059608 -45.73046875 64.50390625 C-50.27191393 62.63168795 -53.53502198 61.1220542 -55.96484375 56.59375 C-56.02734375 54.03125 -56.02734375 54.03125 -54.96484375 51.59375 C-50.04591473 46.85190242 -43.75710946 44.75165033 -37.53320312 42.21289062 C-28.56299543 38.37431873 -22.08459183 33.3163249 -17.77734375 24.46875 C-17.44839111 23.82711914 -17.11943848 23.18548828 -16.78051758 22.52441406 C-14.12575073 17.22920582 -11.9999566 11.80396926 -10.0703125 6.203125 C-7.83193399 0.91960257 -5.7109076 0.26408821 0 0 Z " fill="#FDD43D" transform="translate(821.96484375,309.40625)"/>
<path d="M0 0 C0 6.34041436 -6.59040929 12.72277634 -10.875 17.1875 C-13 19 -13 19 -15 19 C-15.2475 19.598125 -15.495 20.19625 -15.75 20.8125 C-17.19377978 23.33911462 -18.6476067 24.31604633 -21 26 C-21.57878906 26.44859375 -22.15757812 26.8971875 -22.75390625 27.359375 C-28.22718791 31.56777299 -33.88431026 35.77742275 -40 39 C-40.66 38.67 -41.32 38.34 -42 38 C-40.92363281 37.27296875 -39.84726562 36.5459375 -38.73828125 35.796875 C-24.03395503 25.72907851 -10.60115832 14.48605485 0 0 Z " fill="#2D52E6" transform="translate(337,741)"/>
<path d="M0 0 C0.33 0.99 0.66 1.98 1 3 C0.01 3.495 0.01 3.495 -1 4 C-1 3.34 -1 2.68 -1 2 C-5.06605797 0.64464734 -8.75271786 0.34197037 -13 1 C-17.05239804 3.99525072 -18.98221699 7.43343846 -21 12 C-21.99 11.34 -22.98 10.68 -24 10 C-23.34 10 -22.68 10 -22 10 C-22.33 8.02 -22.66 6.04 -23 4 C-22.01 4 -21.02 4 -20 4 C-19.67 3.01 -19.34 2.02 -19 1 C-18.34 1 -17.68 1 -17 1 C-16.54625 0.360625 -16.0925 -0.27875 -15.625 -0.9375 C-14 -3 -14 -3 -12.125 -3.8125 C-7.35028176 -4.23379867 -3.84558655 -2.77736807 0 0 Z " fill="#7872F4" transform="translate(736,172)"/>
<path d="M0 0 C0.66 0.33 1.32 0.66 2 1 C1.01 1.33 0.02 1.66 -1 2 C-1.33 2.66 -1.66 3.32 -2 4 C-3.32 4 -4.64 4 -6 4 C-6.33 4.99 -6.66 5.98 -7 7 C-7.928125 7.12375 -8.85625 7.2475 -9.8125 7.375 C-13.13925235 7.81533082 -13.13925235 7.81533082 -16 10 C-17.15317663 12.97903963 -17.0448029 13.86559131 -16 17 C-13.69 17 -11.38 17 -9 17 C-9 18.65 -9 20.3 -9 22 C-12.98806169 21.81450876 -15.26768702 21.17479512 -17.9375 18.25 C-20 15 -20 15 -20.125 12.375 C-17.58268699 7.00789476 -12.04167614 4.86768943 -6.8125 2.6875 C-6.18408203 2.41099609 -5.55566406 2.13449219 -4.90820312 1.84960938 C-3.29888214 1.16629341 -1.65097257 0.57543404 0 0 Z " fill="#FAE63A" transform="translate(786,351)"/>
<path d="M0 0 C0 3.69859196 -0.79844389 4.22773143 -3.25 6.875 C-5.22610074 9.02844311 -7.11561921 11.15090095 -8.89453125 13.47265625 C-11.19127944 16.2296063 -13.63417181 18.32683605 -16.4375 20.5625 C-17.82775391 21.67818359 -17.82775391 21.67818359 -19.24609375 22.81640625 C-20.15488281 23.53699219 -21.06367187 24.25757813 -22 25 C-23.66688972 26.33305447 -25.33362842 27.66629789 -27 29 C-27.66 28.67 -28.32 28.34 -29 28 C-28.07960938 27.15179687 -27.15921875 26.30359375 -26.2109375 25.4296875 C-17.26560436 17.15177448 -8.5582472 8.67692859 0 0 Z " fill="#4E5AEB" transform="translate(649,536)"/>
<path d="M0 0 C0.66 0 1.32 0 2 0 C2 1.98 2 3.96 2 6 C1.01 6 0.02 6 -1 6 C-1.66 7.65 -2.32 9.3 -3 11 C-3.66 11 -4.32 11 -5 11 C-5.18175781 11.69867188 -5.36351562 12.39734375 -5.55078125 13.1171875 C-5.80214844 14.02726562 -6.05351563 14.93734375 -6.3125 15.875 C-6.55613281 16.77992188 -6.79976562 17.68484375 -7.05078125 18.6171875 C-8 21 -8 21 -11 23 C-12 20 -12 20 -11.04370117 17.82348633 C-10.54845947 17.00130615 -10.05321777 16.17912598 -9.54296875 15.33203125 C-9.00736328 14.43935547 -8.47175781 13.54667969 -7.91992188 12.62695312 C-7.34822266 11.69818359 -6.77652344 10.76941406 -6.1875 9.8125 C-5.62740234 8.87212891 -5.06730469 7.93175781 -4.49023438 6.96289062 C-1.37039567 1.82279795 -1.37039567 1.82279795 0 0 Z " fill="#7070F4" transform="translate(782,274)"/>
<path d="M0 0 C0.93423645 3.01031744 1.04449911 3.86650268 0 7 C-0.66 7 -1.32 7 -2 7 C-2.33 9.31 -2.66 11.62 -3 14 C-3.5775 14.061875 -4.155 14.12375 -4.75 14.1875 C-8.43911231 15.51967945 -10.28909007 18.57818014 -12 22 C-13.65 22 -15.3 22 -17 22 C-15.85286362 18.55859086 -15.23139865 18.27645398 -12.3125 16.375 C-6.44179677 12.15905513 -3.10748277 6.41825881 0 0 Z " fill="#F6E836" transform="translate(806,330)"/>
<path d="M0 0 C2.5625 2 2.5625 2 4 4 C3.67 4.66 3.34 5.32 3 6 C2.649375 5.505 2.29875 5.01 1.9375 4.5 C-0.94823868 2.26587973 -3.4596918 2.80331621 -7 3 C-7.33 3 -7.66 3 -8 3 C-10.01224124 3.02266343 -10.01224124 3.02266343 -12 4 C-13.3045656 6.99615946 -13.3045656 6.99615946 -14 10 C-14.75 8.3125 -14.75 8.3125 -15 6 C-10.88704072 -0.09852582 -7.09679493 -0.97060961 0 0 Z " fill="#F8DA37" transform="translate(732,172)"/>
<path d="M0 0 C1 3 1 3 0.109375 5.26953125 C-0.33921875 6.10871094 -0.7878125 6.94789063 -1.25 7.8125 C-1.71664063 8.69679688 -2.18328125 9.58109375 -2.6640625 10.4921875 C-3.10492188 11.31976562 -3.54578125 12.14734375 -4 13 C-4.53625 14.134375 -5.0725 15.26875 -5.625 16.4375 C-6.87699663 18.77076644 -8.00425545 20.28936181 -10 22 C-10.66 21.67 -11.32 21.34 -12 21 C-8 14 -4 7 0 0 Z " fill="#3458E7" transform="translate(350,718)"/>
<path d="M0 0 C0.99 0 1.98 0 3 0 C3 0.66 3 1.32 3 2 C3.99 2 4.98 2 6 2 C9.90178571 10.48214286 9.90178571 10.48214286 10 15 C8.0625 17.875 8.0625 17.875 6 20 C5.67 19.34 5.34 18.68 5 18 C5.33 17.34 5.66 16.68 6 16 C6.53099479 10.22789291 6.53099479 10.22789291 4.1875 5.125 C1.99188856 2.86323046 1.99188856 2.86323046 -1 1 C-0.67 0.67 -0.34 0.34 0 0 Z " fill="#7C72EF" transform="translate(786,240)"/>
<path d="M0 0 C1 3 1 3 0.0625 5 C-0.288125 5.66 -0.63875 6.32 -1 7 C-1 7.99 -1 8.98 -1 10 C-2.32 10.33 -3.64 10.66 -5 11 C-5.66 13.31 -6.32 15.62 -7 18 C-7.66 18 -8.32 18 -9 18 C-9.33 18.66 -9.66 19.32 -10 20 C-9.46323088 14.9738891 -7.05581499 11.37760591 -4.4375 7.1875 C-4.01275391 6.49462891 -3.58800781 5.80175781 -3.15039062 5.08789062 C-2.10690544 3.38783049 -1.05434704 1.69334524 0 0 Z " fill="#F8CB34" transform="translate(689,228)"/>
<path d="M0 0 C0.66 0.33 1.32 0.66 2 1 C-0.64 3.64 -3.28 6.28 -6 9 C-5.67 9.928125 -5.34 10.85625 -5 11.8125 C-4 15 -4 15 -4 18 C-7.88071571 12.78528827 -7.88071571 12.78528827 -8.375 9.53125 C-7.87530539 6.15831138 -6.63033582 5.28354885 -4 3.1875 C-3.2575 2.58292969 -2.515 1.97835937 -1.75 1.35546875 C-1.1725 0.90816406 -0.595 0.46085938 0 0 Z " fill="#4150E8" transform="translate(617,566)"/>
<path d="M0 0 C0.66 0.33 1.32 0.66 2 1 C1.01 1.33 0.02 1.66 -1 2 C-1.33 2.66 -1.66 3.32 -2 4 C-3.32 4 -4.64 4 -6 4 C-6.33 4.99 -6.66 5.98 -7 7 C-7.886875 7.12375 -8.77375 7.2475 -9.6875 7.375 C-12.70387502 7.94412736 -15.20326054 8.76614436 -18 10 C-14.80826692 6.3190817 -11.30338706 4.50907364 -6.875 2.6875 C-6.24207031 2.41099609 -5.60914063 2.13449219 -4.95703125 1.84960938 C-3.33184368 1.16468425 -1.66739011 0.57460186 0 0 Z " fill="#F9EE2F" transform="translate(786,351)"/>
<path d="M0 0 C3.16115776 1.36983503 3.9927092 1.9890638 6 5 C6.81625828 11.87989118 5.08303822 15.51706296 1 21 C0.37890625 19.1484375 0.37890625 19.1484375 0 17 C0.639375 16.21625 1.27875 15.4325 1.9375 14.625 C4.2298694 12.1424561 4.2298694 12.1424561 4.5 8.9375 C3.89248513 5.36835016 2.67040551 4.33660482 0 2 C0 1.34 0 0.68 0 0 Z " fill="#FADA2F" transform="translate(787,243)"/>
<path d="M0 0 C0.66 0.33 1.32 0.66 2 1 C1.61094382 3.72339328 0.93262433 5.08903214 -0.75 7.3125 C-3 9 -3 9 -5.75 8.75 C-6.4925 8.5025 -7.235 8.255 -8 8 C-7.01 7.67 -6.02 7.34 -5 7 C-5 6.34 -5 5.68 -5 5 C-3.37446717 3.29319053 -1.70884005 1.62339805 0 0 Z " fill="#7071F2" transform="translate(742,343)"/>
<path d="M0 0 C0.99 0.33 1.98 0.66 3 1 C0.63707344 3.52588702 -0.66462511 4.88820837 -4 6 C-5.37195574 7.29355827 -6.71182656 8.62298702 -8 10 C-7.4346089 6.49304707 -6.31277274 4.97267387 -3.625 2.6875 C-3.01914062 2.15511719 -2.41328125 1.62273437 -1.7890625 1.07421875 C-0.90347656 0.54248047 -0.90347656 0.54248047 0 0 Z " fill="#3C52E8" transform="translate(368,347)"/>
<path d="M0 0 C0.41176754 3.60296594 0.1535853 4.78402067 -2 7.8125 C-2.66 8.534375 -3.32 9.25625 -4 10 C-4.66 9.34 -5.32 8.68 -6 8 C-3.73913043 0 -3.73913043 0 0 0 Z " fill="#7676EE" transform="translate(686,230)"/>
<path d="M0 0 C3.94876098 0.56410871 6.75634176 1.65735794 10 4 C10.33 4.99 10.66 5.98 11 7 C10.01 7.495 10.01 7.495 9 8 C9 7.34 9 6.68 9 6 C5.7 5.34 2.4 4.68 -1 4 C-0.67 2.68 -0.34 1.36 0 0 Z " fill="#867CE4" transform="translate(726,168)"/>
<path d="M0 0 C-0.37596209 2.78211944 -0.67318459 4.5879284 -2.4375 6.8125 C-4 8 -4 8 -6 8 C-6 6.02 -6 4.04 -6 2 C-2.25 0 -2.25 0 0 0 Z " fill="#F8CD42" transform="translate(830,405)"/>
<path d="M0 0 C0.33 0 0.66 0 1 0 C1.125 5.75 1.125 5.75 0 8 C-1.64363134 8.72159424 -3.31050386 9.39351421 -5 10 C-3.66654496 6.40992874 -2.1056769 3.20429093 0 0 Z " fill="#FCCD37" transform="translate(695,218)"/>
<path d="M0 0 C0.66 0.99 1.32 1.98 2 3 C0.68 5.31 -0.64 7.62 -2 10 C-2.66 10 -3.32 10 -4 10 C-3.67 7.36 -3.34 4.72 -3 2 C-2.01 2 -1.02 2 0 2 C0 1.34 0 0.68 0 0 Z " fill="#7A75EE" transform="translate(708,190)"/>
<path d="M0 0 C1 4 1 4 0.00390625 5.703125 C-1.33072917 7.13541667 -2.66536458 8.56770833 -4 10 C-4.66 9.67 -5.32 9.34 -6 9 C-4.02 6.03 -2.04 3.06 0 0 Z " fill="#4D59EC" transform="translate(667,511)"/>
<path d="M0 0 C-0.33 1.32 -0.66 2.64 -1 4 C-2.32 4.33 -3.64 4.66 -5 5 C-5 4.34 -5 3.68 -5 3 C-5.66 2.34 -6.32 1.68 -7 1 C-4.53721199 -0.231394 -2.7204945 -0.07159196 0 0 Z " fill="#7C7AEF" transform="translate(855,345)"/>
<path d="M0 0 C2.5 1.3125 2.5 1.3125 5 3 C5 3.99 5 4.98 5 6 C4.01 6.33 3.02 6.66 2 7 C1.01 5.02 0.02 3.04 -1 1 C-0.67 0.67 -0.34 0.34 0 0 Z " fill="#7273EE" transform="translate(667,273)"/>
<path d="M0 0 C0.66 0 1.32 0 2 0 C6 6.625 6 6.625 6 10 C5.01 9.34 4.02 8.68 3 8 C3 7.01 3 6.02 3 5 C2.34 5 1.68 5 1 5 C0.67 3.35 0.34 1.7 0 0 Z " fill="#7375E9" transform="translate(763,362)"/>
<path d="M0 0 C0.66 0.99 1.32 1.98 2 3 C0.625 5.5 0.625 5.5 -1 8 C-1.66 8 -2.32 8 -3 8 C-2.74438677 5.6568787 -2.40729228 3.32156597 -2 1 C-1.34 0.67 -0.68 0.34 0 0 Z " fill="#7272F1" transform="translate(670,256)"/>
<path d="M0 0 C0 3.90838866 -1.50567876 5.11594107 -4 8 C-4.99 7.67 -5.98 7.34 -7 7 C-4.69 4.69 -2.38 2.38 0 0 Z " fill="#4754EA" transform="translate(649,536)"/>
<path d="M0 0 C0.66 0 1.32 0 2 0 C2 2.97 2 5.94 2 9 C0.02 9.99 0.02 9.99 -2 11 C-1.855625 10.28972656 -1.71125 9.57945312 -1.5625 8.84765625 C-1.376875 7.92855469 -1.19125 7.00945312 -1 6.0625 C-0.814375 5.14597656 -0.62875 4.22945313 -0.4375 3.28515625 C0.03133964 1.22408298 0.03133964 1.22408298 0 0 Z " fill="#7376EE" transform="translate(830,404)"/>
<path d="M0 0 C0.33 0.99 0.66 1.98 1 3 C-0.9375 6.1875 -0.9375 6.1875 -3 9 C-3.33 8.34 -3.66 7.68 -4 7 C-4.66 6.67 -5.32 6.34 -6 6 C-5.38125 5.938125 -4.7625 5.87625 -4.125 5.8125 C-1.72238859 5.171081 -1.72238859 5.171081 -0.75 2.4375 C-0.5025 1.633125 -0.255 0.82875 0 0 Z " fill="#F6CC3B" transform="translate(782,271)"/>
<path d="M0 0 C0.66 0 1.32 0 2 0 C2 2.64 2 5.28 2 8 C0.4375 6.8125 0.4375 6.8125 -1 5 C-0.6875 2.3125 -0.6875 2.3125 0 0 Z " fill="#ECE441" transform="translate(767,361)"/>
<path d="M0 0 C0.99 0.66 1.98 1.32 3 2 C2.67 2.99 2.34 3.98 2 5 C1.01 5.33 0.02 5.66 -1 6 C-1.33 5.01 -1.66 4.02 -2 3 C-1.34 2.01 -0.68 1.02 0 0 Z " fill="#7575EF" transform="translate(764,305)"/>
</svg>
